<?xml version="1.0" encoding="UTF-8" standalone="no"?>
<!DOCTYPE svg PUBLIC "-//W3C//DTD SVG 1.1//EN"
 "http://www.w3.org/Graphics/SVG/1.1/DTD/svg11.dtd">
 <svg width="200pt" height="200pt"  viewBox="0 0 200 200" xmlns="http://www.w3.org/2000/svg" xmlns:xlink="http://www.w3.org/1999/xlink">
    <g transform="translate(100, 100)" >
<circle cx="0" cy="0" r="0.0" stroke-width="1" style="stroke:#000; fill:transparent"/> <circle cx="0" cy="0" r="14.142135623730951" stroke-width="1" style="stroke:#000; fill:transparent"/> <circle cx="0" cy="0" r="20.0" stroke-width="1" style="stroke:#000; fill:transparent"/> <circle cx="0" cy="0" r="24.49489742783178" stroke-width="1" style="stroke:#000; fill:transparent"/> <circle cx="0" cy="0" r="28.284271247461902" stroke-width="1" style="stroke:#000; fill:transparent"/> <circle cx="0" cy="0" r="31.622776601683793" stroke-width="1" style="stroke:#000; fill:transparent"/> <circle cx="0" cy="0" r="34.64101615137755" stroke-width="1" style="stroke:#000; fill:transparent"/> <circle cx="0" cy="0" r="37.416573867739416" stroke-width="1" style="stroke:#000; fill:transparent"/> <circle cx="0" cy="0" r="40.0" stroke-width="1" style="stroke:#000; fill:transparent"/> <circle cx="0" cy="0" r="42.42640687119285" stroke-width="1" style="stroke:#000; fill:transparent"/> <circle cx="0" cy="0" r="44.721359549995796" stroke-width="1" style="stroke:#000; fill:transparent"/> <circle cx="0" cy="0" r="46.9041575982343" stroke-width="1" style="stroke:#000; fill:transparent"/> <circle cx="0" cy="0" r="48.98979485566356" stroke-width="1" style="stroke:#000; fill:transparent"/> <circle cx="0" cy="0" r="50.99019513592785" stroke-width="1" style="stroke:#000; fill:transparent"/> <circle cx="0" cy="0" r="52.91502622129182" stroke-width="1" style="stroke:#000; fill:transparent"/> <circle cx="0" cy="0" r="54.77225575051661" stroke-width="1" style="stroke:#000; fill:transparent"/> <circle cx="0" cy="0" r="56.568542494923804" stroke-width="1" style="stroke:#000; fill:transparent"/> <circle cx="0" cy="0" r="58.30951894845301" stroke-width="1" style="stroke:#000; fill:transparent"/> <circle cx="0" cy="0" r="60.0" stroke-width="1" style="stroke:#000; fill:transparent"/> <circle cx="0" cy="0" r="61.644140029689765" stroke-width="1" style="stroke:#000; fill:transparent"/> <circle cx="0" cy="0" r="63.245553203367585" stroke-width="1" style="stroke:#000; fill:transparent"/> <circle cx="0" cy="0" r="64.8074069840786" stroke-width="1" style="stroke:#000; fill:transparent"/> <circle cx="0" cy="0" r="66.33249580710799" stroke-width="1" style="stroke:#000; fill:transparent"/> <circle cx="0" cy="0" r="67.82329983125268" stroke-width="1" style="stroke:#000; fill:transparent"/> <circle cx="0" cy="0" r="69.2820323027551" stroke-width="1" style="stroke:#000; fill:transparent"/> <circle cx="0" cy="0" r="70.71067811865476" stroke-width="1" style="stroke:#000; fill:transparent"/> <circle cx="0" cy="0" r="72.11102550927978" stroke-width="1" style="stroke:#000; fill:transparent"/> <circle cx="0" cy="0" r="73.48469228349535" stroke-width="1" style="stroke:#000; fill:transparent"/> <circle cx="0" cy="0" r="74.83314773547883" stroke-width="1" style="stroke:#000; fill:transparent"/> <circle cx="0" cy="0" r="76.15773105863907" stroke-width="1" style="stroke:#000; fill:transparent"/> <circle cx="0" cy="0" r="77.45966692414834" stroke-width="1" style="stroke:#000; fill:transparent"/> <circle cx="0" cy="0" r="78.74007874011811" stroke-width="1" style="stroke:#000; fill:transparent"/> <circle cx="0" cy="0" r="80.0" stroke-width="1" style="stroke:#000; fill:transparent"/> <circle cx="0" cy="0" r="81.24038404635961" stroke-width="1" style="stroke:#000; fill:transparent"/> <circle cx="0" cy="0" r="82.46211251235322" stroke-width="1" style="stroke:#000; fill:transparent"/> <circle cx="0" cy="0" r="83.66600265340756" stroke-width="1" style="stroke:#000; fill:transparent"/> <circle cx="0" cy="0" r="84.8528137423857" stroke-width="1" style="stroke:#000; fill:transparent"/> <circle cx="0" cy="0" r="86.02325267042626" stroke-width="1" style="stroke:#000; fill:transparent"/> <circle cx="0" cy="0" r="87.17797887081346" stroke-width="1" style="stroke:#000; fill:transparent"/> <circle cx="0" cy="0" r="88.31760866327846" stroke-width="1" style="stroke:#000; fill:transparent"/> <circle cx="0" cy="0" r="89.44271909999159" stroke-width="1" style="stroke:#000; fill:transparent"/> <circle cx="0" cy="0" r="90.55385138137416" stroke-width="1" style="stroke:#000; fill:transparent"/> <circle cx="0" cy="0" r="91.6515138991168" stroke-width="1" style="stroke:#000; fill:transparent"/> <circle cx="0" cy="0" r="92.73618495495704" stroke-width="1" style="stroke:#000; fill:transparent"/> <circle cx="0" cy="0" r="93.8083151964686" stroke-width="1" style="stroke:#000; fill:transparent"/> <circle cx="0" cy="0" r="94.86832980505137" stroke-width="1" style="stroke:#000; fill:transparent"/> <circle cx="0" cy="0" r="95.91663046625439" stroke-width="1" style="stroke:#000; fill:transparent"/> <circle cx="0" cy="0" r="96.95359714832658" stroke-width="1" style="stroke:#000; fill:transparent"/> <circle cx="0" cy="0" r="97.97958971132712" stroke-width="1" style="stroke:#000; fill:transparent"/> <circle cx="0" cy="0" r="98.99494936611666" stroke-width="1" style="stroke:#000; fill:transparent"/> <circle cx="0" cy="0" r="100.0" stroke-width="1" style="stroke:#000; fill:transparent"/>
</g>
</svg>
